<?xml version="1.0" encoding="UTF-8" standalone="no"?>
<!DOCTYPE svg PUBLIC "-//W3C//DTD SVG 1.1//EN"
 "http://www.w3.org/Graphics/SVG/1.1/DTD/svg11.dtd">
<!-- Generated by graphviz version 2.40.1 (20161225.0304)
 -->
<!-- Title: dependencies Pages: 1 -->
<svg width="1963pt" height="284pt"
 viewBox="0.00 0.00 1963.00 284.00" xmlns="http://www.w3.org/2000/svg" xmlns:xlink="http://www.w3.org/1999/xlink">
<g id="graph0" class="graph" transform="scale(1 1) rotate(0) translate(4 280)">
<title>dependencies</title>
<polygon fill="#ffffff" stroke="transparent" points="-4,4 -4,-280 1959,-280 1959,4 -4,4"/>
<text text-anchor="start" x="956.5091" y="-42.4" font-family="sans-serif" font-weight="bold" font-size="14.00" fill="#000000">Legend</text>
<polygon fill="#ffffb3" stroke="transparent" points="743.5,-10 743.5,-30 763.5,-30 763.5,-10 743.5,-10"/>
<text text-anchor="start" x="767.129" y="-15.4" font-family="sans-serif" font-size="14.00" fill="#000000"> &#160;Declarations</text>
<polygon fill="#8dd3c7" stroke="transparent" points="856.5,-10 856.5,-30 876.5,-30 876.5,-10 856.5,-10"/>
<text text-anchor="start" x="880.2251" y="-15.4" font-family="sans-serif" font-size="14.00" fill="#000000"> &#160;Module</text>
<polygon fill="#80b1d3" stroke="transparent" points="942.5,-10 942.5,-30 962.5,-30 962.5,-10 942.5,-10"/>
<text text-anchor="start" x="966.2812" y="-15.4" font-family="sans-serif" font-size="14.00" fill="#000000"> &#160;Bootstrap</text>
<polygon fill="#fdb462" stroke="transparent" points="1039.5,-10 1039.5,-30 1059.5,-30 1059.5,-10 1039.5,-10"/>
<text text-anchor="start" x="1063.1732" y="-15.4" font-family="sans-serif" font-size="14.00" fill="#000000"> &#160;Providers</text>
<polygon fill="#fb8072" stroke="transparent" points="1135.5,-10 1135.5,-30 1155.5,-30 1155.5,-10 1135.5,-10"/>
<text text-anchor="start" x="1159.2258" y="-15.4" font-family="sans-serif" font-size="14.00" fill="#000000"> &#160;Exports</text>
<g id="clust1" class="cluster">
<title>cluster_AppModule</title>
<polygon fill="none" stroke="#000000" stroke-dasharray="1,5" points="8,-70 8,-268 1947,-268 1947,-70 8,-70"/>
</g>
<g id="clust2" class="cluster">
<title>cluster_AppModule_declarations</title>
<polygon fill="none" stroke="#000000" points="560,-78 560,-130 1939,-130 1939,-78 560,-78"/>
</g>
<g id="clust12" class="cluster">
<title>cluster_AppModule_imports</title>
<polygon fill="none" stroke="#000000" points="364,-78 364,-130 552,-130 552,-78 364,-78"/>
</g>
<g id="clust14" class="cluster">
<title>cluster_AppModule_bootstrap</title>
<polygon fill="none" stroke="#000000" points="937,-208 937,-260 1061,-260 1061,-208 937,-208"/>
</g>
<g id="clust15" class="cluster">
<title>cluster_AppModule_providers</title>
<polygon fill="none" stroke="#000000" points="16,-78 16,-130 356,-130 356,-78 16,-78"/>
</g>
<!-- AddExecComponent -->
<g id="node1" class="node">
<title>AddExecComponent</title>
<polygon fill="#ffffb3" stroke="#000000" points="1930.9215,-122 1797.0785,-122 1797.0785,-86 1930.9215,-86 1930.9215,-122"/>
<text text-anchor="middle" x="1864" y="-99.8" font-family="Times,serif" font-size="14.00" fill="#000000">AddExecComponent</text>
</g>
<!-- AppModule -->
<g id="node10" class="node">
<title>AppModule</title>
<polygon fill="#8dd3c7" stroke="#000000" points="1040.6571,-187 1037.6571,-191 1016.6571,-191 1013.6571,-187 957.3429,-187 957.3429,-151 1040.6571,-151 1040.6571,-187"/>
<text text-anchor="middle" x="999" y="-164.8" font-family="Times,serif" font-size="14.00" fill="#000000">AppModule</text>
</g>
<!-- AddExecComponent&#45;&gt;AppModule -->
<g id="edge1" class="edge">
<title>AddExecComponent&#45;&gt;AppModule</title>
<path fill="none" stroke="#000000" d="M1864,-122.0908C1864,-145.1328 1864,-182 1864,-182 1864,-182 1050.7207,-182 1050.7207,-182"/>
<polygon fill="#000000" stroke="#000000" points="1050.7208,-178.5001 1040.7207,-182 1050.7207,-185.5001 1050.7208,-178.5001"/>
</g>
<!-- AddProjectComponent -->
<g id="node2" class="node">
<title>AddProjectComponent</title>
<polygon fill="#ffffb3" stroke="#000000" points="1779.5926,-122 1634.4074,-122 1634.4074,-86 1779.5926,-86 1779.5926,-122"/>
<text text-anchor="middle" x="1707" y="-99.8" font-family="Times,serif" font-size="14.00" fill="#000000">AddProjectComponent</text>
</g>
<!-- AddProjectComponent&#45;&gt;AppModule -->
<g id="edge2" class="edge">
<title>AddProjectComponent&#45;&gt;AppModule</title>
<path fill="none" stroke="#000000" d="M1707,-122.0449C1707,-143.6623 1707,-177 1707,-177 1707,-177 1050.9065,-177 1050.9065,-177"/>
<polygon fill="#000000" stroke="#000000" points="1050.9066,-173.5001 1040.9065,-177 1050.9065,-180.5001 1050.9066,-173.5001"/>
</g>
<!-- AppComponent -->
<g id="node3" class="node">
<title>AppComponent</title>
<polygon fill="#ffffb3" stroke="#000000" points="1616.9399,-122 1511.0601,-122 1511.0601,-86 1616.9399,-86 1616.9399,-122"/>
<text text-anchor="middle" x="1564" y="-99.8" font-family="Times,serif" font-size="14.00" fill="#000000">AppComponent</text>
</g>
<!-- AppComponent&#45;&gt;AppModule -->
<g id="edge3" class="edge">
<title>AppComponent&#45;&gt;AppModule</title>
<path fill="none" stroke="#000000" d="M1564,-122.2228C1564,-142.3652 1564,-172 1564,-172 1564,-172 1051.0052,-172 1051.0052,-172"/>
<polygon fill="#000000" stroke="#000000" points="1051.0053,-168.5001 1041.0052,-172 1051.0052,-175.5001 1051.0053,-168.5001"/>
</g>
<!-- ExecComponent -->
<g id="node4" class="node">
<title>ExecComponent</title>
<polygon fill="#ffffb3" stroke="#000000" points="1493.8147,-122 1384.1853,-122 1384.1853,-86 1493.8147,-86 1493.8147,-122"/>
<text text-anchor="middle" x="1439" y="-99.8" font-family="Times,serif" font-size="14.00" fill="#000000">ExecComponent</text>
</g>
<!-- ExecComponent&#45;&gt;AppModule -->
<g id="edge4" class="edge">
<title>ExecComponent&#45;&gt;AppModule</title>
<path fill="none" stroke="#000000" d="M1439,-122.2222C1439,-140.8285 1439,-167 1439,-167 1439,-167 1050.7908,-167 1050.7908,-167"/>
<polygon fill="#000000" stroke="#000000" points="1050.7908,-163.5001 1040.7908,-167 1050.7908,-170.5001 1050.7908,-163.5001"/>
</g>
<!-- ProjectComponent -->
<g id="node5" class="node">
<title>ProjectComponent</title>
<polygon fill="#ffffb3" stroke="#000000" points="1366.486,-122 1245.514,-122 1245.514,-86 1366.486,-86 1366.486,-122"/>
<text text-anchor="middle" x="1306" y="-99.8" font-family="Times,serif" font-size="14.00" fill="#000000">ProjectComponent</text>
</g>
<!-- ProjectComponent&#45;&gt;AppModule -->
<g id="edge5" class="edge">
<title>ProjectComponent&#45;&gt;AppModule</title>
<path fill="none" stroke="#000000" d="M1306,-122.0336C1306,-139.0597 1306,-162 1306,-162 1306,-162 1050.7229,-162 1050.7229,-162"/>
<polygon fill="#000000" stroke="#000000" points="1050.7229,-158.5001 1040.7229,-162 1050.7229,-165.5001 1050.7229,-158.5001"/>
</g>
<!-- PublicComponent -->
<g id="node6" class="node">
<title>PublicComponent</title>
<polygon fill="#ffffb3" stroke="#000000" points="1227.6109,-122 1110.3891,-122 1110.3891,-86 1227.6109,-86 1227.6109,-122"/>
<text text-anchor="middle" x="1169" y="-99.8" font-family="Times,serif" font-size="14.00" fill="#000000">PublicComponent</text>
</g>
<!-- PublicComponent&#45;&gt;AppModule -->
<g id="edge6" class="edge">
<title>PublicComponent&#45;&gt;AppModule</title>
<path fill="none" stroke="#000000" d="M1169,-122.2396C1169,-137.5706 1169,-157 1169,-157 1169,-157 1051.0225,-157 1051.0225,-157"/>
<polygon fill="#000000" stroke="#000000" points="1051.0225,-153.5001 1041.0225,-157 1051.0224,-160.5001 1051.0225,-153.5001"/>
</g>
<!-- ReportComparisonComponent -->
<g id="node7" class="node">
<title>ReportComparisonComponent</title>
<polygon fill="#ffffb3" stroke="#000000" points="1092.8724,-122 905.1276,-122 905.1276,-86 1092.8724,-86 1092.8724,-122"/>
<text text-anchor="middle" x="999" y="-99.8" font-family="Times,serif" font-size="14.00" fill="#000000">ReportComparisonComponent</text>
</g>
<!-- ReportComparisonComponent&#45;&gt;AppModule -->
<g id="edge7" class="edge">
<title>ReportComparisonComponent&#45;&gt;AppModule</title>
<path fill="none" stroke="#000000" d="M999,-122.1061C999,-122.1061 999,-140.991 999,-140.991"/>
<polygon fill="#000000" stroke="#000000" points="995.5001,-140.9909 999,-150.991 1002.5001,-140.991 995.5001,-140.9909"/>
</g>
<!-- ViewExecsComponent -->
<g id="node8" class="node">
<title>ViewExecsComponent</title>
<polygon fill="#ffffb3" stroke="#000000" points="887.5772,-122 742.4228,-122 742.4228,-86 887.5772,-86 887.5772,-122"/>
<text text-anchor="middle" x="815" y="-99.8" font-family="Times,serif" font-size="14.00" fill="#000000">ViewExecsComponent</text>
</g>
<!-- ViewExecsComponent&#45;&gt;AppModule -->
<g id="edge8" class="edge">
<title>ViewExecsComponent&#45;&gt;AppModule</title>
<path fill="none" stroke="#000000" d="M815,-122.2396C815,-137.5706 815,-157 815,-157 815,-157 947.2476,-157 947.2476,-157"/>
<polygon fill="#000000" stroke="#000000" points="947.2476,-160.5001 957.2476,-157 947.2475,-153.5001 947.2476,-160.5001"/>
</g>
<!-- ViewProjectsComponent -->
<g id="node9" class="node">
<title>ViewProjectsComponent</title>
<polygon fill="#ffffb3" stroke="#000000" points="724.2492,-122 567.7508,-122 567.7508,-86 724.2492,-86 724.2492,-122"/>
<text text-anchor="middle" x="646" y="-99.8" font-family="Times,serif" font-size="14.00" fill="#000000">ViewProjectsComponent</text>
</g>
<!-- ViewProjectsComponent&#45;&gt;AppModule -->
<g id="edge9" class="edge">
<title>ViewProjectsComponent&#45;&gt;AppModule</title>
<path fill="none" stroke="#000000" d="M646,-122.0336C646,-139.0597 646,-162 646,-162 646,-162 947.1201,-162 947.1201,-162"/>
<polygon fill="#000000" stroke="#000000" points="947.1201,-165.5001 957.1201,-162 947.12,-158.5001 947.1201,-165.5001"/>
</g>
<!-- AppComponent  -->
<g id="node13" class="node">
<title>AppComponent </title>
<polygon fill="#80b1d3" stroke="#000000" points="1053.439,-252 944.561,-252 944.561,-216 1053.439,-216 1053.439,-252"/>
<text text-anchor="middle" x="999" y="-229.8" font-family="Times,serif" font-size="14.00" fill="#000000">AppComponent </text>
</g>
<!-- AppModule&#45;&gt;AppComponent  -->
<g id="edge12" class="edge">
<title>AppModule&#45;&gt;AppComponent </title>
<path fill="none" stroke="#000000" stroke-dasharray="1,5" d="M999,-187.1061C999,-187.1061 999,-205.991 999,-205.991"/>
<polygon fill="#000000" stroke="#000000" points="995.5001,-205.9909 999,-215.991 1002.5001,-205.991 995.5001,-205.9909"/>
</g>
<!-- routing -->
<g id="node11" class="node">
<title>routing</title>
<polygon fill="#8dd3c7" stroke="#000000" points="544.4435,-122 541.4435,-126 520.4435,-126 517.4435,-122 487.5565,-122 487.5565,-86 544.4435,-86 544.4435,-122"/>
<text text-anchor="middle" x="516" y="-99.8" font-family="Times,serif" font-size="14.00" fill="#000000">routing</text>
</g>
<!-- routing&#45;&gt;AppModule -->
<g id="edge10" class="edge">
<title>routing&#45;&gt;AppModule</title>
<path fill="none" stroke="#000000" d="M516,-122.2222C516,-140.8285 516,-167 516,-167 516,-167 946.9819,-167 946.9819,-167"/>
<polygon fill="#000000" stroke="#000000" points="946.9819,-170.5001 956.9819,-167 946.9818,-163.5001 946.9819,-170.5001"/>
</g>
<!-- SharedModule -->
<g id="node12" class="node">
<title>SharedModule</title>
<polygon fill="#8dd3c7" stroke="#000000" points="470.4231,-122 467.4231,-126 446.4231,-126 443.4231,-122 371.5769,-122 371.5769,-86 470.4231,-86 470.4231,-122"/>
<text text-anchor="middle" x="421" y="-99.8" font-family="Times,serif" font-size="14.00" fill="#000000">SharedModule</text>
</g>
<!-- SharedModule&#45;&gt;AppModule -->
<g id="edge11" class="edge">
<title>SharedModule&#45;&gt;AppModule</title>
<path fill="none" stroke="#000000" d="M421,-122.2228C421,-142.3652 421,-172 421,-172 421,-172 946.9661,-172 946.9661,-172"/>
<polygon fill="#000000" stroke="#000000" points="946.9661,-175.5001 956.9661,-172 946.966,-168.5001 946.9661,-175.5001"/>
</g>
<!-- ElasticsearchService -->
<g id="node14" class="node">
<title>ElasticsearchService</title>
<ellipse fill="#fdb462" stroke="#000000" cx="257" cy="-104" rx="90.8607" ry="18"/>
<text text-anchor="middle" x="257" y="-99.8" font-family="Times,serif" font-size="14.00" fill="#000000">ElasticsearchService</text>
</g>
<!-- ElasticsearchService&#45;&gt;AppModule -->
<g id="edge13" class="edge">
<title>ElasticsearchService&#45;&gt;AppModule</title>
<path fill="none" stroke="#000000" d="M257,-122.0449C257,-143.6623 257,-177 257,-177 257,-177 947.2493,-177 947.2493,-177"/>
<polygon fill="#000000" stroke="#000000" points="947.2493,-180.5001 957.2493,-177 947.2492,-173.5001 947.2493,-180.5001"/>
</g>
<!-- TableService -->
<g id="node15" class="node">
<title>TableService</title>
<ellipse fill="#fdb462" stroke="#000000" cx="86" cy="-104" rx="61.9538" ry="18"/>
<text text-anchor="middle" x="86" y="-99.8" font-family="Times,serif" font-size="14.00" fill="#000000">TableService</text>
</g>
<!-- TableService&#45;&gt;AppModule -->
<g id="edge14" class="edge">
<title>TableService&#45;&gt;AppModule</title>
<path fill="none" stroke="#000000" d="M86,-122.0908C86,-145.1328 86,-182 86,-182 86,-182 947.097,-182 947.097,-182"/>
<polygon fill="#000000" stroke="#000000" points="947.097,-185.5001 957.097,-182 947.097,-178.5001 947.097,-185.5001"/>
</g>
</g>
</svg>
